<svg xmlns="http://www.w3.org/2000/svg" viewBox="0 0 720 520" font-family="'Helvetica Neue', Helvetica, Arial, sans-serif">
  <defs>
    <style>
      .title { font-size: 14px; font-weight: 600; fill: #333; }
      .subtitle { font-size: 10px; fill: #666; }
      .path-name { font-size: 12px; font-weight: 700; }
      .path-desc { font-size: 9px; fill: #555; }
      .legal-label { font-size: 10px; font-weight: 600; }
      .legal-example { font-size: 9px; fill: #666; font-style: italic; }
    </style>
  </defs>

  <text x="360" y="24" text-anchor="middle" class="title">Figure 10.1 — Four Geometric Pathologies of Legal Failure</text>
  <text x="360" y="40" text-anchor="middle" class="subtitle">The same four failure modes from Geometric Reasoning, instantiated on the legal decision manifold.</text>

  <!-- 2x2 grid -->
  <!-- Heuristic Corruption (top-left): Media-influenced sentencing -->
  <g transform="translate(20, 60)">
    <rect x="0" y="0" width="330" height="200" fill="#fff5f0" stroke="#fcbba1" stroke-width="1.5" rx="8"/>

    <text x="165" y="25" text-anchor="middle" class="path-name" fill="#cb181d">1. Heuristic Corruption</text>
    <text x="165" y="40" text-anchor="middle" class="path-desc">The sentencing heuristic is corrupted by media salience</text>

    <!-- Mini diagram -->
    <line x1="40" y1="80" x2="120" y2="80" stroke="#2171b5" stroke-width="2"/>
    <polygon points="120,80 114,75 114,85" fill="#2171b5"/>
    <text x="80" y="73" text-anchor="middle" class="path-desc" fill="#2171b5">media signal</text>

    <line x1="40" y1="80" x2="100" y2="120" stroke="#1a9850" stroke-width="2" stroke-dasharray="4,3"/>
    <polygon points="100,120 93,114 97,122" fill="#1a9850"/>
    <text x="55" y="112" class="path-desc" fill="#1a9850">just sentence</text>

    <text x="170" y="80" class="legal-label" fill="#cb181d">Legal examples:</text>
    <text x="170" y="95" class="legal-example">Media-influenced sentencing</text>
    <text x="170" y="109" class="legal-example">Availability bias in risk assessment</text>
    <text x="170" y="123" class="legal-example">Anchoring to prosecution's ask</text>

    <rect x="10" y="140" width="310" height="48" fill="#fee0d2" rx="4"/>
    <text x="165" y="158" text-anchor="middle" class="path-desc" font-weight="600" fill="#cb181d">Fix: sentencing guidelines, structured discretion,</text>
    <text x="165" y="172" text-anchor="middle" class="path-desc" font-weight="600" fill="#cb181d">evidence-based risk tools → restore heuristic admissibility</text>
  </g>

  <!-- Objective Hijacking (top-right): Plea bargaining as sycophancy -->
  <g transform="translate(370, 60)">
    <rect x="0" y="0" width="330" height="200" fill="#fff5eb" stroke="#fdbe85" stroke-width="1.5" rx="8"/>

    <text x="165" y="25" text-anchor="middle" class="path-name" fill="#e6550d">2. Objective Hijacking</text>
    <text x="165" y="40" text-anchor="middle" class="path-desc">The system optimizes conviction rate, not justice</text>

    <!-- Mini diagram -->
    <circle cx="50" cy="90" r="4" fill="#333"/>
    <line x1="54" y1="90" x2="110" y2="70" stroke="#1a9850" stroke-width="2"/>
    <text x="115" y="66" class="path-desc" fill="#1a9850">just outcome</text>
    <line x1="54" y1="92" x2="110" y2="120" stroke="#d73027" stroke-width="2.5"/>
    <text x="115" y="125" class="path-desc" fill="#d73027">conviction rate</text>

    <text x="170" y="80" class="legal-label" fill="#e6550d">Legal examples:</text>
    <text x="170" y="95" class="legal-example">Plea bargaining (97% of fed. cases)</text>
    <text x="170" y="109" class="legal-example">Prosecutorial win-rate optimization</text>
    <text x="170" y="123" class="legal-example">Elected judges tracking public opinion</text>

    <rect x="10" y="140" width="310" height="48" fill="#fee6ce" rx="4"/>
    <text x="165" y="158" text-anchor="middle" class="path-desc" font-weight="600" fill="#e6550d">Fix: trial penalty reform, independent judiciary,</text>
    <text x="165" y="172" text-anchor="middle" class="path-desc" font-weight="600" fill="#e6550d">Brady disclosure enforcement → protect the objective</text>
  </g>

  <!-- Local Minima (bottom-left): Bad precedent -->
  <g transform="translate(20, 280)">
    <rect x="0" y="0" width="330" height="200" fill="#f7fcf5" stroke="#a1d99b" stroke-width="1.5" rx="8"/>

    <text x="165" y="25" text-anchor="middle" class="path-name" fill="#238b45">3. Local Minima</text>
    <text x="165" y="40" text-anchor="middle" class="path-desc">Bad precedent traps doctrine in a suboptimal basin</text>

    <!-- Mini diagram: W-shaped potential -->
    <path d="M 30,120 C 50,120 60,80 80,80 C 100,80 110,120 120,120 C 130,120 140,60 170,50"
          fill="none" stroke="#333" stroke-width="1.5"/>
    <circle cx="80" cy="118" r="4" fill="#d73027"/>
    <text x="80" y="140" text-anchor="middle" class="path-desc" fill="#d73027">bad precedent</text>
    <circle cx="165" cy="48" r="4" fill="#1a9850"/>
    <text x="165" y="42" class="path-desc" fill="#1a9850">just rule</text>

    <text x="190" y="75" class="legal-label" fill="#238b45">Legal examples:</text>
    <text x="190" y="90" class="legal-example">Plessy v. Ferguson (58 years trapped)</text>
    <text x="190" y="104" class="legal-example">Qualified immunity doctrine</text>
    <text x="190" y="118" class="legal-example">Mandatory minimums</text>

    <rect x="10" y="140" width="310" height="48" fill="#e5f5e0" rx="4"/>
    <text x="165" y="158" text-anchor="middle" class="path-desc" font-weight="600" fill="#238b45">Fix: overruling (escape energy), legislative override,</text>
    <text x="165" y="172" text-anchor="middle" class="path-desc" font-weight="600" fill="#238b45">constitutional amendment → provide escape energy</text>
  </g>

  <!-- Gauge Breaking (bottom-right): Sentencing disparities -->
  <g transform="translate(370, 280)">
    <rect x="0" y="0" width="330" height="200" fill="#f7fbff" stroke="#9ecae1" stroke-width="1.5" rx="8"/>

    <text x="165" y="25" text-anchor="middle" class="path-name" fill="#2171b5">4. Gauge Breaking</text>
    <text x="165" y="40" text-anchor="middle" class="path-desc">Outcome depends on irrelevant description (who, not what)</text>

    <!-- Mini diagram: same input, different outputs -->
    <rect x="30" y="60" width="60" height="25" fill="#deebf7" stroke="#9ecae1" rx="3"/>
    <text x="60" y="77" text-anchor="middle" class="path-desc" fill="#2171b5">same crime</text>
    <rect x="30" y="95" width="60" height="25" fill="#fee0d2" stroke="#fcbba1" rx="3"/>
    <text x="60" y="112" text-anchor="middle" class="path-desc" fill="#d73027">same crime</text>
    <text x="105" y="82" class="path-desc">White → 12 mo</text>
    <text x="105" y="112" class="path-desc" fill="#d73027">Black → 24 mo</text>

    <text x="190" y="75" class="legal-label" fill="#2171b5">Legal examples:</text>
    <text x="190" y="90" class="legal-example">Racial sentencing disparities</text>
    <text x="190" y="104" class="legal-example">Bail amount ∝ income (not risk)</text>
    <text x="190" y="118" class="legal-example">Geography-dependent outcomes</text>

    <rect x="10" y="140" width="310" height="48" fill="#deebf7" rx="4"/>
    <text x="165" y="158" text-anchor="middle" class="path-desc" font-weight="600" fill="#2171b5">Fix: LBI auditing, blind review, algorithmic</text>
    <text x="165" y="172" text-anchor="middle" class="path-desc" font-weight="600" fill="#2171b5">fairness testing → enforce gauge invariance</text>
  </g>

  <!-- Caption -->
  <text x="360" y="500" text-anchor="middle" class="subtitle">These four pathologies co-occur and reinforce. A high-profile drug case activates all four: media bias, plea pressure, mandatory minimums, racial disparity.</text>
  <text x="360" y="515" text-anchor="middle" class="subtitle">Each maps to a specific geometric property: corrupted gradient, hijacked objective, basin entrapment, or gauge variance.</text>
</svg>